<svg width="202" height="40" viewBox="0 0 202 40" fill="none" xmlns="http://www.w3.org/2000/svg">
    <path
        d="M3.23985 40H34.8563C36.6454 40 38.0957 38.6009 38.0957 36.875V3.125C38.0957 1.39911 36.6454 0 34.8563 0H3.23985C1.45079 0 0.000461578 1.39911 0.000461578 3.125V36.875C0.000461578 38.6009 1.45079 40 3.23985 40Z"
        fill="#546FFF"
    />
    <path
        d="M17.5754 27.546L25.5088 19.5434L23.4728 17.4897L17.5401 23.4737L14.5914 20.4994L12.5905 22.5177L17.5754 27.546ZM10.6248 33.2113C9.85235 33.2113 9.19151 32.934 8.64205 32.3798C8.09259 31.8256 7.81746 31.1585 7.81641 30.3785V7.71687C7.81641 6.93796 8.09153 6.27112 8.64205 5.71688C9.19257 5.16264 9.8534 4.88513 10.6248 4.88406H21.8579L30.2828 13.3822V30.3785C30.2828 31.1577 30.0082 31.8248 29.4588 32.3798C28.9093 32.9351 28.2479 33.2121 27.4747 33.2113H10.6248ZM20.4538 14.7987H27.4747L20.4538 7.71687V14.7987Z"
        fill="white"
    />
    <path
        d="M55.1117 30V14.64H50.3597V12.12H62.5997V14.64H57.9197V30H55.1117ZM66.1915 30.288C65.3115 30.288 64.5355 30.136 63.8635 29.832C63.2075 29.512 62.6955 29.08 62.3275 28.536C61.9595 27.976 61.7755 27.32 61.7755 26.568C61.7755 25.864 61.9275 25.232 62.2315 24.672C62.5515 24.112 63.0395 23.64 63.6955 23.256C64.3515 22.872 65.1755 22.6 66.1675 22.44L70.6795 21.696V23.832L66.6955 24.528C65.9755 24.656 65.4475 24.888 65.1115 25.224C64.7755 25.544 64.6075 25.96 64.6075 26.472C64.6075 26.968 64.7915 27.376 65.1595 27.696C65.5435 28 66.0315 28.152 66.6235 28.152C67.3595 28.152 67.9995 27.992 68.5435 27.672C69.1035 27.352 69.5355 26.928 69.8395 26.4C70.1435 25.856 70.2955 25.256 70.2955 24.6V21.264C70.2955 20.624 70.0555 20.104 69.5755 19.704C69.1115 19.288 68.4875 19.08 67.7035 19.08C66.9835 19.08 66.3515 19.272 65.8075 19.656C65.2795 20.024 64.8875 20.504 64.6315 21.096L62.3755 19.968C62.6155 19.328 63.0075 18.768 63.5515 18.288C64.0955 17.792 64.7275 17.408 65.4475 17.136C66.1835 16.864 66.9595 16.728 67.7755 16.728C68.7995 16.728 69.7035 16.92 70.4875 17.304C71.2875 17.688 71.9035 18.224 72.3355 18.912C72.7835 19.584 73.0075 20.368 73.0075 21.264V30H70.4155V27.648L70.9675 27.72C70.6635 28.248 70.2715 28.704 69.7915 29.088C69.3275 29.472 68.7915 29.768 68.1835 29.976C67.5915 30.184 66.9275 30.288 66.1915 30.288ZM80.2585 30.288C78.9305 30.288 77.7625 29.96 76.7545 29.304C75.7625 28.648 75.0665 27.768 74.6665 26.664L76.7545 25.68C77.1065 26.416 77.5865 27 78.1945 27.432C78.8185 27.864 79.5065 28.08 80.2585 28.08C80.8985 28.08 81.4185 27.936 81.8185 27.648C82.2185 27.36 82.4185 26.968 82.4185 26.472C82.4185 26.152 82.3305 25.896 82.1545 25.704C81.9785 25.496 81.7545 25.328 81.4825 25.2C81.2265 25.072 80.9625 24.976 80.6905 24.912L78.6505 24.336C77.5305 24.016 76.6905 23.536 76.1305 22.896C75.5865 22.24 75.3145 21.48 75.3145 20.616C75.3145 19.832 75.5145 19.152 75.9145 18.576C76.3145 17.984 76.8665 17.528 77.5705 17.208C78.2745 16.888 79.0665 16.728 79.9465 16.728C81.1305 16.728 82.1865 17.024 83.1145 17.616C84.0425 18.192 84.6985 19 85.0825 20.04L82.9945 21.024C82.7385 20.4 82.3305 19.904 81.7705 19.536C81.2265 19.168 80.6105 18.984 79.9225 18.984C79.3305 18.984 78.8585 19.128 78.5065 19.416C78.1545 19.688 77.9785 20.048 77.9785 20.496C77.9785 20.8 78.0585 21.056 78.2185 21.264C78.3785 21.456 78.5865 21.616 78.8425 21.744C79.0985 21.856 79.3625 21.952 79.6345 22.032L81.7465 22.656C82.8185 22.96 83.6425 23.44 84.2185 24.096C84.7945 24.736 85.0825 25.504 85.0825 26.4C85.0825 27.168 84.8745 27.848 84.4585 28.44C84.0585 29.016 83.4985 29.472 82.7785 29.808C82.0585 30.128 81.2185 30.288 80.2585 30.288ZM87.0197 30V11.832H89.7317V24L88.6757 23.736L95.1797 17.016H98.5637L93.6677 22.224L98.7797 30H95.6597L91.0997 23.112L92.7077 22.896L88.8677 26.976L89.7317 25.176V30H87.0197ZM100.181 30V12.12H106.685C107.885 12.12 108.941 12.344 109.853 12.792C110.781 13.224 111.501 13.864 112.013 14.712C112.525 15.544 112.781 16.544 112.781 17.712C112.781 18.864 112.517 19.856 111.989 20.688C111.477 21.52 110.765 22.16 109.853 22.608C108.941 23.056 107.885 23.28 106.685 23.28H103.013V30H100.181ZM103.013 20.76H106.757C107.397 20.76 107.957 20.632 108.437 20.376C108.917 20.12 109.293 19.768 109.565 19.32C109.837 18.856 109.973 18.312 109.973 17.688C109.973 17.064 109.837 16.528 109.565 16.08C109.293 15.616 108.917 15.264 108.437 15.024C107.957 14.768 107.397 14.64 106.757 14.64H103.013V20.76ZM120.508 30.288C119.26 30.288 118.116 29.992 117.076 29.4C116.052 28.808 115.236 28 114.628 26.976C114.02 25.952 113.716 24.792 113.716 23.496C113.716 22.184 114.02 21.024 114.628 20.016C115.236 18.992 116.052 18.192 117.076 17.616C118.1 17.024 119.244 16.728 120.508 16.728C121.788 16.728 122.932 17.024 123.94 17.616C124.964 18.192 125.772 18.992 126.364 20.016C126.972 21.024 127.276 22.184 127.276 23.496C127.276 24.808 126.972 25.976 126.364 27C125.756 28.024 124.94 28.832 123.916 29.424C122.892 30 121.756 30.288 120.508 30.288ZM120.508 27.768C121.276 27.768 121.956 27.584 122.548 27.216C123.14 26.848 123.604 26.344 123.94 25.704C124.292 25.048 124.468 24.312 124.468 23.496C124.468 22.68 124.292 21.952 123.94 21.312C123.604 20.672 123.14 20.168 122.548 19.8C121.956 19.432 121.276 19.248 120.508 19.248C119.756 19.248 119.076 19.432 118.468 19.8C117.876 20.168 117.404 20.672 117.052 21.312C116.716 21.952 116.548 22.68 116.548 23.496C116.548 24.312 116.716 25.048 117.052 25.704C117.404 26.344 117.876 26.848 118.468 27.216C119.076 27.584 119.756 27.768 120.508 27.768ZM135.203 30.288C133.955 30.288 132.835 29.992 131.843 29.4C130.867 28.792 130.091 27.976 129.515 26.952C128.955 25.928 128.675 24.776 128.675 23.496C128.675 22.216 128.963 21.064 129.539 20.04C130.115 19.016 130.891 18.208 131.867 17.616C132.843 17.024 133.947 16.728 135.179 16.728C136.219 16.728 137.139 16.936 137.939 17.352C138.739 17.768 139.371 18.344 139.835 19.08L139.427 19.704V11.832H142.115V30H139.547V27.36L139.859 27.864C139.411 28.648 138.771 29.248 137.939 29.664C137.107 30.08 136.195 30.288 135.203 30.288ZM135.467 27.768C136.219 27.768 136.891 27.584 137.483 27.216C138.091 26.848 138.563 26.344 138.899 25.704C139.251 25.048 139.427 24.312 139.427 23.496C139.427 22.68 139.251 21.952 138.899 21.312C138.563 20.672 138.091 20.168 137.483 19.8C136.891 19.432 136.219 19.248 135.467 19.248C134.715 19.248 134.035 19.432 133.427 19.8C132.819 20.168 132.347 20.672 132.011 21.312C131.675 21.952 131.507 22.68 131.507 23.496C131.507 24.312 131.675 25.048 132.011 25.704C132.347 26.344 132.811 26.848 133.403 27.216C134.011 27.584 134.699 27.768 135.467 27.768ZM150.826 30.288C149.578 30.288 148.434 29.992 147.394 29.4C146.37 28.808 145.554 28 144.946 26.976C144.338 25.952 144.034 24.792 144.034 23.496C144.034 22.184 144.338 21.024 144.946 20.016C145.554 18.992 146.37 18.192 147.394 17.616C148.418 17.024 149.562 16.728 150.826 16.728C152.106 16.728 153.25 17.024 154.258 17.616C155.282 18.192 156.09 18.992 156.682 20.016C157.29 21.024 157.594 22.184 157.594 23.496C157.594 24.808 157.29 25.976 156.682 27C156.074 28.024 155.258 28.832 154.234 29.424C153.21 30 152.074 30.288 150.826 30.288ZM150.826 27.768C151.594 27.768 152.274 27.584 152.866 27.216C153.458 26.848 153.922 26.344 154.258 25.704C154.61 25.048 154.786 24.312 154.786 23.496C154.786 22.68 154.61 21.952 154.258 21.312C153.922 20.672 153.458 20.168 152.866 19.8C152.274 19.432 151.594 19.248 150.826 19.248C150.074 19.248 149.394 19.432 148.786 19.8C148.194 20.168 147.722 20.672 147.37 21.312C147.034 21.952 146.866 22.68 146.866 23.496C146.866 24.312 147.034 25.048 147.37 25.704C147.722 26.344 148.194 26.848 148.786 27.216C149.394 27.584 150.074 27.768 150.826 27.768ZM159.521 30V17.016H162.113V19.632L161.873 19.248C162.161 18.4 162.625 17.792 163.265 17.424C163.905 17.04 164.673 16.848 165.569 16.848H166.361V19.32H165.233C164.337 19.32 163.609 19.6 163.049 20.16C162.505 20.704 162.233 21.488 162.233 22.512V30H159.521ZM173.761 30.288C172.513 30.288 171.369 29.992 170.329 29.4C169.305 28.808 168.489 28 167.881 26.976C167.273 25.952 166.969 24.792 166.969 23.496C166.969 22.184 167.273 21.024 167.881 20.016C168.489 18.992 169.305 18.192 170.329 17.616C171.353 17.024 172.497 16.728 173.761 16.728C175.041 16.728 176.185 17.024 177.193 17.616C178.217 18.192 179.025 18.992 179.617 20.016C180.225 21.024 180.529 22.184 180.529 23.496C180.529 24.808 180.225 25.976 179.617 27C179.009 28.024 178.193 28.832 177.169 29.424C176.145 30 175.009 30.288 173.761 30.288ZM173.761 27.768C174.529 27.768 175.209 27.584 175.801 27.216C176.393 26.848 176.857 26.344 177.193 25.704C177.545 25.048 177.721 24.312 177.721 23.496C177.721 22.68 177.545 21.952 177.193 21.312C176.857 20.672 176.393 20.168 175.801 19.8C175.209 19.432 174.529 19.248 173.761 19.248C173.009 19.248 172.329 19.432 171.721 19.8C171.129 20.168 170.657 20.672 170.305 21.312C169.969 21.952 169.801 22.68 169.801 23.496C169.801 24.312 169.969 25.048 170.305 25.704C170.657 26.344 171.129 26.848 171.721 27.216C172.329 27.584 173.009 27.768 173.761 27.768Z"
        fill="currentColor"
    />
</svg>
